<!--?xml version="1.0" encoding="UTF-8"?-->
<svg xmlns="http://www.w3.org/2000/svg" viewBox="0 0 5120 5120">
    <defs>
        <linearGradient id="rainbow_long_left" x1="0%" y1="0%" x2="100%" y2="0%">
            <stop offset="0%" stop-color="#ff3300"></stop>
            <stop offset="10%" stop-color="#ffcc00"></stop>
            <stop offset="60%" stop-color="#00ff66"></stop>
            <stop offset="80%" stop-color="#00ccff"></stop>
            <stop offset="100%" stop-color="#3366ff"></stop>
        </linearGradient>
        <linearGradient id="rainbow_long_right" x1="100%" y1="0%" x2="0%" y2="0%">
            <stop offset="0%" stop-color="#ff3300"></stop>
            <stop offset="10%" stop-color="#ffcc00"></stop>
            <stop offset="60%" stop-color="#00ff66"></stop>
            <stop offset="80%" stop-color="#00ccff"></stop>
            <stop offset="100%" stop-color="#3366ff"></stop>
        </linearGradient>
        <linearGradient id="rainbow_small_left" x1="0%" y1="0%" x2="100%" y2="0%">
            <stop offset="0%" stop-color="#ff3300"></stop>
            <stop offset="15%" stop-color="#ffcc00"></stop>
            <stop offset="100%" stop-color="#00ff66"></stop>
        </linearGradient>
        <linearGradient id="rainbow_small_right" x1="100%" y1="0%" x2="0%" y2="0%">
            <stop offset="0%" stop-color="#ff3300"></stop>
            <stop offset="15%" stop-color="#ffcc00"></stop>
            <stop offset="100%" stop-color="#00ff66"></stop>
        </linearGradient>

        <filter id="softShadow">
            <feDropShadow dx="0" dy="0" stdDeviation="4" flood-color="#000000" flood-opacity="0.5"></feDropShadow>
        </filter>

        <filter id="brushedTexture">
            <feTurbulence type="fractalNoise" baseFrequency="0.005 0.8" numOctaves="10" seed="10" result="noise"/>
            <feColorMatrix in="noise" type="saturate" values="0" result="mono"/>
            <feComposite in="mono" in2="SourceAlpha" operator="in" result="maskedNoise"/>
            <feBlend in="SourceGraphic" in2="maskedNoise" mode="multiply" result="metal"/>
        </filter>
    </defs>

    <!-- Hintergrund -->
    <rect width="5120" height="5120" fill="none"></rect>

    <g stroke="#000000" stroke-width="10" filter="url(#softShadow)">
        <!-- Linke Linien -->
        <polygon points="320,1960 1840,1960 1760,2040 320,2040" fill="url(#rainbow_long_left)"></polygon>
        <polygon points="320,2520 1260,2520 1260,2600 320,2600" fill="url(#rainbow_small_left)"></polygon>
        <polygon points="320,3160 1840,3160 1760,3080 320,3080" fill="url(#rainbow_long_left)"></polygon>

        <!-- Rechte Linien -->
        <polygon points="3280,1960 4800,1960 4800,2040 3360,2040" fill="url(#rainbow_long_right)"></polygon>
        <polygon points="4800,2520 3860,2520 3860,2600 4800,2600" fill="url(#rainbow_small_right)"></polygon>
        <polygon points="4800,3160 3280,3160 3360,3080 4800,3080" fill="url(#rainbow_long_right)"></polygon>
    </g>

    <g fill="#dbdbdb" filter="url(#brushedTexture)" stroke="#000000" stroke-width="10">
        <!-- MB -->
        <path d="
            M 1340 2580
            L 1500 2580
            L 2019 3099
            L 2020 2140
            L 2200 2140
            L 2410 2530
            L 2620 2140
            L 2980 2140
            A 230 230 0 0 1 3173 2493
            A 240 240 0 0 1 3020 2900
            L 2520 2900
            L 2616 2720
            L 3020 2720
            A 60 60 0 0 0 2980 2600
            L 2684 2600
            L 2780 2420
            L 2980 2420
            A 50 50 0 0 0 2980 2320
            L 2703 2320
            L 2500 2700
            L 2320 2700
            L 2200 2476
            L 2200 3000
            L 2110 3180
            L 2540 3620
            L 2540 3780
            L 1340 2580

            M 1340 2540
            L 2540 1340
            L 2540 1500
            L 1500 2540
            L 1340 2540

            M 2580 1340
            L 3780 2540
            L 3620 2540
            L 2580 1500
            L 2580 1340

            M 2580 3620
            L 3620 2580
            L 3780 2580
            L 2580 3780
            L 2580 3620
            Z ">
        </path>
    </g>

    <!--g font-size="300" fill="red" filter="url(#brushedTexture)">
        <text x="400" y="2380" text-anchor="start">Master</text>
        <text x="4720" y="2940" text-anchor="end">Studios</text>
    </g-->

    <g fill="#dbdbdb" filter="url(#brushedTexture)" stroke="#000000" stroke-width="2">
        <!-- M -->
        <path d="
            M 405 2181
            L 461 2181
            L 534 2336
            L 604 2181
            L 660 2181
            L 660 2186
            L 649 2187
            A 16 16 0 0 0 633 2203
            L 633 2360
            A 16 16 0 0 0 647 2374
            L 660 2374
            L 664 2380
            L 576 2380
            L 576 2374
            L 590 2374
            A 16 16 0 0 0 603 2360
            L 603 2214
            L 528 2380
            L 522 2380
            L 446 2214
            L 446 2360
            A 16 16 0 0 0 460 2374
            L 474 2374
            L 474 2380
            L 405 2380
            L 405 2374
            L 419 2374
            A 16 16 0 0 0 432 2360
            L 432 2203
            A 16 16 0 0 0 418 2187
            L 405 2187
            L 405 2181
            Z ">
        </path>

        <!-- a -->
        <path d="
            M 752.00,2292.00
            C 752.00,2280.21 753.27,2266.03 743.96,2257.10
              733.99,2247.54 716.36,2248.67 709.01,2261.00
              706.37,2265.42 707.06,2270.09 707.00,2275.00
              706.94,2279.16 706.64,2282.56 703.61,2285.77
              698.69,2291.00 688.79,2289.92 685.01,2283.96
              683.09,2280.94 682.89,2277.47 683.04,2274.00
              683.25,2269.14 684.92,2265.11 687.47,2261.00
              699.03,2242.35 726.48,2240.25 746.00,2243.27
              752.35,2244.26 759.88,2246.54 764.99,2250.53
              773.75,2257.39 775.87,2268.43 776.00,2279.00
              776.00,2279.00 776.00,2332.00 776.00,2332.00
              776.00,2339.35 775.64,2346.72 776.73,2354.00
              777.25,2357.48 777.59,2361.11 781.11,2362.96
              787.00,2366.07 793.50,2356.94 799.00,2353.00
              798.99,2356.07 799.21,2359.16 797.83,2362.00
              792.64,2372.62 772.13,2387.99 760.02,2380.26
              752.22,2375.29 753.84,2368.55 752.00,2361.00
              742.94,2367.44 731.51,2377.87 721.00,2380.96
              699.11,2387.40 678.28,2374.71 678.00,2351.00
              677.94,2345.33 677.69,2341.45 679.71,2336.00
              686.41,2317.87 710.30,2307.88 727.00,2300.99
              734.02,2298.09 744.73,2293.32 752.00,2292.00
            Z
            M 752.00,2300.00
            C 738.88,2303.54 715.75,2314.33 707.39,2325.00
              698.75,2336.02 700.27,2354.05 712.00,2362.35
              721.96,2369.40 732.84,2364.75 742.00,2358.95
              744.51,2357.36 749.52,2354.19 750.98,2351.70
              752.22,2349.58 752.00,2346.41 752.00,2344.00
              752.00,2344.00 752.00,2300.00 752.00,2300.00
            Z">
        </path>

        <!-- s -->
        <path d="
            M 820.00,2335.00
            C 822.62,2351.94 833.37,2368.15 850.00,2373.90
              864.36,2378.87 883.91,2373.59 884.89,2356.00
              885.48,2345.50 878.09,2337.85 870.00,2332.36
              856.17,2322.97 829.27,2312.91 820.55,2299.96
              806.28,2278.77 818.99,2247.80 848.00,2242.92
              850.87,2242.44 853.05,2241.97 856.00,2242.18
              856.00,2242.18 884.00,2247.60 884.00,2247.60
              890.23,2247.13 888.00,2242.63 896.00,2242.00
              896.00,2242.00 896.00,2287.00 896.00,2287.00
              896.00,2287.00 891.00,2287.00 891.00,2287.00
              888.91,2273.45 880.61,2256.93 867.00,2252.10
              856.22,2248.28 844.15,2249.26 836.11,2258.02
              833.40,2260.96 831.67,2263.92 831.47,2268.00
              830.91,2279.31 840.23,2286.85 849.00,2291.99
              866.68,2302.34 889.55,2307.43 900.88,2326.00
              903.64,2330.51 905.26,2336.74 905.68,2342.00
              907.42,2363.95 888.22,2380.15 868.00,2383.00
              865.26,2383.39 862.78,2383.88 860.00,2383.68
              853.96,2383.22 847.92,2382.71 842.00,2381.35
              838.48,2380.54 830.05,2378.11 827.00,2378.15
              821.53,2378.21 822.30,2380.98 816.00,2382.00
              816.00,2382.00 816.00,2335.00 816.00,2335.00
              816.00,2335.00 820.00,2335.00 820.00,2335.00
            Z">
        </path>

        <!-- t -->
        <path d="
            M 920.00,2251.00
            C 932.28,2247.09 945.54,2231.87 951.99,2221.00
              951.99,2221.00 960.81,2203.59 960.81,2203.59
              962.02,2202.38 962.57,2202.49 964.00,2202.00
              964.00,2202.00 964.00,2246.00 964.00,2246.00
              964.00,2246.00 996.00,2246.00 996.00,2246.00
              996.00,2246.00 996.00,2256.00 996.00,2256.00
              996.00,2256.00 964.26,2256.00 964.26,2256.00
              964.26,2256.00 964.26,2275.96 964.26,2275.96
              964.26,2275.96 964.26,2282.51 964.26,2282.51
              964.26,2282.51 964.26,2298.00 964.26,2298.00
              964.26,2298.00 964.26,2314.89 964.26,2314.89
              964.26,2314.89 964.26,2329.00 964.26,2329.00
              964.26,2329.00 964.79,2344.00 964.79,2344.00
              965.44,2352.78 965.23,2362.30 976.00,2365.16
              987.27,2368.15 990.78,2355.40 999.00,2354.00
              995.47,2372.82 973.26,2387.80 955.00,2378.62
              950.14,2376.18 946.76,2373.01 944.53,2368.00
              940.25,2358.41 941.00,2339.73 941.00,2329.00
              941.00,2329.00 941.00,2256.00 941.00,2256.00
              941.00,2256.00 920.00,2256.00 920.00,2256.00
              920.00,2256.00 920.00,2251.00 920.00,2251.00
            Z">
        </path>

        <!-- e -->
        <path d="
            M 1120.00,2329.00
            C 1121.46,2329.95 1122.65,2330.35 1123.23,2332.22
              1124.84,2337.40 1117.21,2352.48 1114.30,2357.00
              1101.39,2377.09 1082.87,2387.12 1059.00,2382.54
              1037.16,2378.35 1020.91,2360.96 1014.91,2340.00
              1011.38,2327.67 1011.86,2318.59 1012.00,2306.00
              1012.25,2285.13 1022.54,2263.49 1040.00,2251.75
              1062.44,2236.66 1096.36,2238.80 1113.47,2261.00
              1121.20,2271.02 1123.99,2283.60 1124.00,2296.00
              1124.00,2296.00 1031.00,2296.00 1031.00,2296.00
              1032.62,2302.67 1031.56,2304.09 1032.29,2310.00
              1033.62,2320.84 1037.53,2332.46 1044.47,2341.00
              1049.26,2346.91 1056.14,2353.21 1063.00,2356.62
              1076.91,2363.54 1095.44,2361.50 1106.83,2350.70
              1112.91,2344.94 1117.26,2336.83 1120.00,2329.00
            Z
            M 1095.00,2288.00
            C 1092.48,2277.62 1095.30,2272.22 1087.08,2262.17
              1075.02,2247.44 1052.51,2249.02 1040.67,2263.09
              1033.50,2271.60 1033.50,2278.08 1031.00,2288.00
              1031.00,2288.00 1095.00,2288.00 1095.00,2288.00 Z">
        </path>

        <!-- r -->
        <path d="
            M 1136.00,2258.00
            C 1147.25,2254.10 1170.88,2242.50 1181.00,2242.00
              1181.00,2242.00 1181.00,2272.00 1181.00,2272.00
              1188.11,2265.35 1199.17,2240.41 1218.00,2242.34
              1227.13,2243.27 1234.40,2249.38 1233.95,2259.00
              1233.81,2262.03 1233.18,2264.30 1231.20,2266.67
              1221.09,2278.74 1208.15,2262.27 1202.00,2261.78
              1198.36,2261.49 1195.38,2264.63 1193.04,2267.02
              1185.65,2274.54 1181.02,2282.38 1181.00,2293.00
              1181.00,2293.00 1181.00,2345.00 1181.00,2345.00
              1181.01,2350.49 1181.72,2360.20 1184.28,2365.00
              1188.67,2373.25 1196.48,2374.92 1205.00,2375.00
              1205.00,2375.00 1205.00,2380.00 1205.00,2380.00
              1205.00,2380.00 1137.00,2380.00 1137.00,2380.00
              1137.00,2380.00 1137.00,2375.00 1137.00,2375.00
              1144.16,2374.94 1151.97,2373.93 1155.86,2366.98
              1158.92,2361.53 1158.00,2347.65 1158.00,2341.00
              1158.00,2341.00 1158.00,2281.00 1158.00,2281.00
              1157.99,2272.03 1156.94,2260.52 1145.00,2261.11
              1142.13,2261.25 1139.69,2262.13 1137.00,2263.00
              1137.00,2263.00 1136.00,2258.00 1136.00,2258.00
            Z">
        </path>

        <!-- S -->
        <path d="
            M 3841.00,2877.00
            C 3842.62,2877.28 3843.82,2877.20 3845.02,2878.60
              3845.02,2878.60 3850.81,2898.00 3850.81,2898.00
              3855.91,2911.41 3863.44,2919.59 3876.00,2926.56
              3894.72,2936.96 3923.79,2936.92 3937.98,2918.99
              3941.94,2913.99 3944.33,2908.39 3944.82,2902.00
              3946.24,2883.20 3927.15,2870.25 3913.00,2862.15
              3893.85,2851.19 3860.28,2834.44 3847.79,2817.00
              3841.41,2808.09 3838.75,2797.84 3839.01,2787.00
              3839.14,2781.89 3840.26,2776.78 3842.06,2772.00
              3849.83,2751.49 3868.00,2740.36 3889.00,2737.85
              3892.47,2737.43 3894.33,2736.88 3898.00,2737.09
              3907.19,2737.61 3916.44,2739.65 3925.00,2743.00
              3929.36,2744.71 3938.58,2749.05 3943.00,2748.26
              3948.67,2747.24 3950.82,2741.94 3952.00,2737.00
              3952.00,2737.00 3957.00,2737.00 3957.00,2737.00
              3957.00,2737.00 3957.00,2805.00 3957.00,2805.00
              3957.00,2805.00 3952.00,2805.00 3952.00,2805.00
              3949.99,2780.46 3937.96,2759.68 3914.00,2751.09
              3897.38,2745.13 3879.05,2747.40 3867.68,2762.00
              3864.23,2766.43 3861.56,2772.33 3861.21,2778.00
              3860.23,2793.79 3877.37,2804.97 3889.00,2812.32
              3889.00,2812.32 3936.00,2839.32 3936.00,2839.32
              3946.33,2845.80 3954.15,2850.59 3961.11,2861.00
              3964.40,2865.92 3966.90,2871.25 3968.34,2877.00
              3977.50,2913.60 3946.50,2943.58 3911.00,2944.00
              3899.16,2944.13 3891.37,2943.28 3880.00,2939.66
              3874.80,2938.00 3858.66,2932.63 3854.00,2933.26
              3844.65,2934.55 3849.55,2942.50 3841.00,2944.00
              3841.00,2944.00 3841.00,2877.00 3841.00,2877.00
            Z">
        </path>

        <!-- t -->
        <path d="
            M 3990.00,2816.00
            C 3990.57,2808.80 3993.37,2810.72 4002.00,2803.98
              4010.59,2797.29 4018.54,2787.63 4023.68,2778.00
              4026.55,2772.61 4027.66,2764.10 4034.00,2762.00
              4034.00,2762.00 4034.00,2806.00 4034.00,2806.00
              4034.00,2806.00 4066.00,2806.00 4066.00,2806.00
              4066.00,2806.00 4066.00,2816.00 4066.00,2816.00
              4066.00,2816.00 4034.00,2816.00 4034.00,2816.00
              4034.00,2816.00 4034.00,2899.00 4034.00,2899.00
              4034.11,2908.11 4034.77,2921.45 4045.00,2924.96
              4056.48,2928.89 4060.48,2915.45 4069.00,2914.00
              4064.29,2934.02 4040.95,2949.80 4022.01,2936.90
              4018.53,2934.52 4016.25,2931.86 4014.53,2928.00
              4010.05,2917.96 4011.00,2900.13 4011.00,2889.00
              4011.00,2889.00 4011.00,2816.00 4011.00,2816.00
              4011.00,2816.00 3990.00,2816.00 3990.00,2816.00
            Z">
        </path>

        <!-- u -->
        <path d="
            M 4071.00,2806.00
            C 4071.00,2806.00 4117.00,2806.00 4117.00,2806.00
              4117.00,2806.00 4117.00,2857.00 4117.00,2857.00
              4117.00,2857.00 4117.00,2900.00 4117.00,2900.00
              4117.09,2907.78 4118.67,2916.32 4125.04,2921.47
              4137.20,2931.29 4152.38,2924.69 4163.00,2916.19
              4165.83,2913.93 4170.37,2910.21 4171.98,2907.00
              4173.19,2904.57 4172.99,2901.65 4173.00,2899.00
              4173.00,2899.00 4173.00,2844.00 4173.00,2844.00
              4173.00,2837.42 4173.89,2824.47 4170.86,2819.00
              4166.93,2811.88 4159.30,2811.07 4152.00,2811.00
              4152.00,2811.00 4152.00,2806.00 4152.00,2806.00
              4152.00,2806.00 4196.00,2806.00 4196.00,2806.00
              4196.00,2806.00 4196.00,2889.00 4196.00,2889.00
              4196.00,2889.00 4197.00,2909.00 4197.00,2909.00
              4197.18,2923.79 4203.63,2927.33 4217.00,2923.00
              4218.45,2929.53 4213.21,2929.63 4208.00,2931.85
              4198.70,2935.81 4182.54,2943.78 4173.00,2944.00
              4173.00,2944.00 4173.00,2915.00 4173.00,2915.00
              4166.80,2921.20 4156.86,2931.90 4150.00,2936.48
              4129.64,2950.06 4103.04,2944.29 4096.16,2919.00
              4093.44,2908.99 4093.00,2890.67 4093.00,2880.00
              4093.00,2880.00 4093.00,2831.00 4093.00,2831.00
              4092.97,2814.58 4086.30,2811.01 4071.00,2811.00
              4071.00,2811.00 4071.00,2806.00 4071.00,2806.00
            Z">
        </path>

        <!-- d -->
        <path d="
            M 4302.00,2748.00
            C 4316.01,2744.22 4334.29,2732.13 4348.00,2732.00
              4348.00,2732.00 4348.00,2882.00 4348.00,2882.00
              4348.00,2889.83 4347.42,2907.25 4348.81,2914.00
              4350.21,2920.84 4353.35,2925.50 4361.00,2924.82
              4363.68,2924.58 4366.42,2923.75 4369.00,2923.00
              4369.00,2923.00 4370.00,2927.00 4370.00,2927.00
              4370.00,2927.00 4343.00,2938.60 4343.00,2938.60
              4335.93,2941.48 4332.90,2943.80 4325.00,2944.00
              4325.00,2944.00 4325.00,2925.00 4325.00,2925.00
              4311.16,2934.27 4308.57,2940.94 4290.00,2943.15
              4287.27,2943.48 4285.84,2943.89 4283.00,2943.68
              4276.39,2943.17 4269.97,2941.64 4264.00,2938.74
              4224.80,2919.69 4222.61,2866.36 4243.42,2833.00
              4255.07,2814.33 4273.23,2801.15 4296.00,2802.04
              4311.16,2802.63 4313.30,2806.98 4325.00,2813.00
              4325.00,2813.00 4325.00,2791.00 4325.00,2791.00
              4325.00,2791.00 4324.00,2769.00 4324.00,2769.00
              4323.99,2764.05 4324.01,2758.12 4320.57,2754.14
              4313.39,2745.82 4307.38,2756.32 4302.00,2748.00
            Z
            M 4291.00,2810.30
            C 4271.49,2813.42 4262.10,2827.70 4258.21,2846.00
              4252.75,2871.69 4255.97,2905.73 4279.00,2922.21
              4289.78,2929.93 4305.03,2930.32 4316.00,2922.78
              4321.83,2918.77 4324.86,2916.27 4325.00,2909.00
              4325.00,2909.00 4325.00,2867.00 4325.00,2867.00
              4325.00,2856.00 4325.72,2845.71 4322.56,2835.00
              4318.24,2820.36 4306.95,2809.46 4291.00,2810.30
            Z">
        </path>

        <!-- i -->
        <path d="
            M 4410.00,2732.64
            C 4428.56,2729.33 4434.77,2755.05 4417.00,2760.35
              4407.42,2763.21 4398.23,2754.66 4399.20,2745.00
              4399.90,2738.02 4403.84,2734.96 4410.00,2732.64
            Z
            M 4380.00,2818.00
            C 4391.70,2813.92 4413.97,2802.27 4425.00,2802.00
              4425.00,2802.00 4425.00,2913.00 4425.00,2913.00
              4425.18,2928.06 4429.24,2934.86 4445.00,2935.00
              4445.00,2935.00 4445.00,2940.00 4445.00,2940.00
              4445.00,2940.00 4381.00,2940.00 4381.00,2940.00
              4381.00,2940.00 4381.00,2935.00 4381.00,2935.00
              4389.15,2934.98 4395.91,2934.52 4399.64,2926.00
              4402.31,2919.88 4402.00,2905.95 4402.00,2899.00
              4402.00,2899.00 4402.00,2850.00 4402.00,2850.00
              4401.94,2845.39 4400.88,2829.52 4398.86,2826.04
              4394.76,2818.95 4387.34,2820.95 4381.00,2823.00
              4381.00,2823.00 4380.00,2818.00 4380.00,2818.00
            Z">
        </path>

        <!-- o -->
        <path d="
            M 4524.00,2802.26
            C 4526.36,2802.14 4527.56,2801.95 4530.00,2802.26
              4558.75,2803.72 4580.19,2820.38 4588.97,2848.00
              4592.34,2858.58 4592.12,2864.19 4592.00,2875.00
              4591.91,2882.74 4590.09,2889.72 4587.67,2897.00
              4579.19,2922.41 4561.50,2940.52 4534.00,2943.07
              4530.86,2943.37 4528.19,2944.04 4525.00,2943.82
              4514.06,2943.04 4503.30,2940.48 4494.00,2934.45
              4487.44,2930.21 4482.05,2924.35 4477.59,2918.00
              4460.75,2894.01 4459.80,2863.91 4472.76,2838.00
              4475.96,2831.61 4480.92,2824.06 4486.04,2819.09
              4497.48,2807.99 4508.86,2804.71 4524.00,2802.26
            Z
            M 4519.00,2811.48
            C 4502.28,2814.57 4494.50,2827.15 4491.62,2843.00
              4487.67,2864.71 4490.74,2891.26 4500.76,2911.00
              4508.64,2926.53 4520.70,2936.73 4539.00,2933.68
              4560.56,2930.08 4565.97,2905.43 4566.00,2887.00
              4566.00,2887.00 4566.00,2877.00 4566.00,2877.00
              4565.96,2854.03 4557.04,2817.23 4531.00,2811.48
              4526.97,2810.81 4523.07,2810.89 4519.00,2811.48
            Z">
        </path>

        <!-- s -->
        <path d="
            M 4619.00,2895.00
            C 4620.62,2895.28 4621.66,2895.17 4622.86,2896.57
              4622.86,2896.57 4629.88,2914.00 4629.88,2914.00
              4636.88,2926.17 4651.42,2936.80 4666.00,2935.91
              4686.01,2934.68 4695.15,2914.24 4681.67,2899.09
              4664.95,2880.29 4624.55,2876.78 4619.09,2848.00
              4618.20,2843.27 4617.91,2841.80 4618.58,2837.00
              4619.29,2831.91 4619.69,2828.81 4621.90,2824.00
              4630.10,2806.20 4648.94,2800.41 4667.00,2803.13
              4667.00,2803.13 4687.00,2807.68 4687.00,2807.68
              4692.72,2807.41 4691.70,2803.24 4699.00,2802.00
              4699.00,2802.00 4699.00,2847.00 4699.00,2847.00
              4697.74,2846.78 4696.83,2846.88 4695.70,2846.01
              4695.70,2846.01 4687.69,2828.00 4687.69,2828.00
              4681.23,2816.28 4670.49,2809.49 4657.00,2810.04
              4638.69,2810.78 4627.62,2827.83 4640.47,2842.96
              4645.29,2848.64 4652.45,2851.97 4659.00,2855.25
              4679.05,2865.27 4707.89,2875.46 4708.96,2902.00
              4709.89,2924.96 4691.56,2940.58 4670.00,2943.15
              4667.26,2943.48 4665.85,2943.89 4663.00,2943.68
              4656.68,2943.20 4650.19,2942.54 4644.00,2941.11
              4640.60,2940.33 4633.05,2938.09 4630.00,2938.20
              4624.92,2938.38 4625.46,2940.97 4619.00,2942.00
              4619.00,2942.00 4619.00,2895.00 4619.00,2895.00
            Z">
        </path>
    </g>
</svg>